# xmcd
#
# Track frame offsets: 
#        150
#        25888
#        44248
#        70782
#        92632
#        114857
#        135290
#        168104
#        185042
#        196739
#        209232
#        233316
#        253207
#        270161
#        280351
#        306072
#        341622
#
# Disc length: 4768 seconds
#
# Revision: 1
# Processed by: cddbd v1.5.2PL0 Copyright (c) Steve Scherf et al.
# Submitted via: ExactAudioCopy v1.3
#
DISCID=ee129e11
DTITLE=Various Artist - Akella Presents - vol.61 - Blues Instrumental
DTITLE=CD2
DYEAR=2016
DGENRE=Blues
TTITLE0=Steve Hunter - 222 W 23rd
TTITLE1=Steve Wariner - A Groove
TTITLE2=Enrico Crivellaro - Chulahoma
TTITLE3=Tas Cru - La Belle Poutine
TTITLE4=Tansini - Green
TTITLE5=Katja Rieckermann and Joe Bonamassa - Blues for Joe
TTITLE6=Ronnie Earl and the Broadcasters - Recovery Blues
TTITLE7=Scott Keeton - Noah‘s Swing
TTITLE8=Harry Manx - Blueswalk
TTITLE9=Turning Blue - Years And Years
TTITLE10=MonkeyJunk - Gutsy
TTITLE11=Kim Simmonds and Savoy Brown - Cobra
TTITLE12=Ike Turner - Bi Polar
TTITLE13=Alex Caporuscio - My Own Stamp
TTITLE14=Austin Young and No Difference - Miss You Moore
TTITLE15=Barry Levenson - Last Train to Nowhere
TTITLE16=Michael Powers - Travelin' Light
EXTD=
EXTT0=
EXTT1=
EXTT2=
EXTT3=
EXTT4=
EXTT5=
EXTT6=
EXTT7=
EXTT8=
EXTT9=
EXTT10=
EXTT11=
EXTT12=
EXTT13=
EXTT14=
EXTT15=
EXTT16=
PLAYORDER=
